# AST/ASF file generated using VICON BodyLanguage
# -----------------------------------------------
:version 1.10
:name VICON
:units
  mass 1.0
  length 0.45
  angle deg
:documentation
   .ast/.asf automatically generated from VICON data using
   VICON BodyBuilder and BodyLanguage model FoxedUp or BRILLIANT.MOD
:root
   order TX TY TZ RX RY RZ
   axis XYZ
   position 0 0 0  
   orientation 0 0 0 
:bonedata
  begin
     id 1 
     name lhipjoint
     direction 0.573633 -0.743009 0.344793 
     length 2.46257 
     axis 0 0 0  XYZ
  end
  begin
     id 2 
     name lfemur
     direction 0.34202 -0.939693 0  
     length 7.3842  
     axis 0 0 20  XYZ
    dof rx ry rz
    limits (-160.0 20.0)
           (-70.0 70.0)
           (-60.0 70.0)
  end
  begin
     id 3 
     name ltibia
     direction 0.34202 -0.939693 0   
     length 7.50407   
     axis 0 0 20   XYZ
    dof rx
    limits (-10.0 170.0)
  end
  begin
     id 4 
     name lfoot
     direction 0.110749 -0.304281 0.946123   
     length 1.95925   
     axis -90 7.62852e-016 20   XYZ
    dof rx rz
    limits (-45.0 90.0)
           (-70.0 20.0)
  end
  begin
     id 5 
     name ltoes
     direction 1.53554e-011 -4.21843e-011 1   
     length 0.978318   
     axis -90 7.62852e-016 20   XYZ
    dof rx
    limits (-90.0 20.0)
  end
  begin
     id 6 
     name rhipjoint
     direction -0.488109 -0.791693 0.367385   
     length 2.31113  
     axis 0 0 0  XYZ 
  end
  begin
     id 7 
     name rfemur
     direction -0.34202 -0.939693 0   
     length 7.40965   
     axis 0 0 -20   XYZ
    dof rx ry rz
    limits (-160.0 20.0)
           (-70.0 70.0)
           (-70.0 60.0)
  end
  begin
     id 8 
     name rtibia
     direction -0.34202 -0.939693 0   
     length 7.55548   
     axis 0 0 -20   XYZ
    dof rx
    limits (-10.0 170.0)
 end
 begin
     id 9 
     name rfoot
     direction -0.127594 -0.350561 0.927808   
     length 2.07199  
     axis -90 -7.62852e-016 -20   XYZ
    dof rx rz
    limits (-45.0 90.0)
           (-20.0 70.0)
  end
  begin
     id 10 
     name rtoes
     direction -1.53542e-011 -4.21909e-011 1   
     length 1.02667   
     axis -90 -7.62852e-016 -20   XYZ
    dof rx
    limits (-90.0 20.0)
  end
  begin
     id 11 
     name lowerback
     direction -0.0103342 0.997298 -0.0727278   
     length 2.02836   
     axis 0 0 0   XYZ
    dof rx ry rz
    limits (-20.0 45.0)
           (-30.0 30.0)
           (-30.0 30.0)
  end
  begin
     id 12 
     name upperback
     direction 0.0171146 0.999786 -0.011606   
     length 2.03179   
     axis 0 0 0   XYZ
    dof rx ry rz
    limits (-20.0 45.0)
           (-30.0 30.0)
           (-30.0 30.0)
  end
  begin
     id 13 
     name thorax
     direction 0.0216927 0.999513 0.0224343   
     length 2.03882   
     axis 0 0 0   XYZ
    dof rx ry rz
    limits (-20.0 45.0)
           (-30.0 30.0)
           (-30.0 30.0)
  end
  begin
     id 14 
     name lowerneck
     direction 0.000989287 0.993907 0.110221   
     length 1.75428   
     axis 0 0 0   XYZ
    dof rx ry rz
    limits (-20.0 45.0)
           (-30.0 30.0)
           (-30.0 30.0)
  end
  begin
     id 15 
     name upperneck
     direction -0.0172474 0.994813 -0.100253   
     length 1.77058   
     axis 0 0 0   XYZ
    dof rx ry rz
    limits (-20.0 45.0)
           (-30.0 30.0)
           (-30.0 30.0)
  end
  begin
     id 16
     name head
     direction -0.00486455 0.99894 -0.0457663  
     length 1.77427  
     axis 0 0 0   XYZ
    dof rx ry rz
    limits (-20.0 45.0)
           (-30.0 30.0)
           (-30.0 30.0)
  end
  begin
     id 17 
     name lclavicle
     direction 0.927314 0.333734 -0.169441  
     length 3.97584  
     axis 0 0 0   XYZ
    dof ry rz
    limits (-20.0 10.0)
           (0.0 20.0)
  end
  begin
     id 18 
     name lhumerus
     direction 1 -4.48965e-011 -3.25313e-028   
     length 4.76468   
     axis 180 -30 -90   XYZ
    dof rx ry rz
    limits (-60.0 90.0)
           (-90.0 90.0)
           (-90.0 90.0)
  end
  begin
     id 19
     name lradius
     direction 1 -4.48969e-011 -2.8465e-028   
     length 3.52712   
     axis -180 -30 -90   XYZ
    dof rx
    limits (-10.0 170.0)
  end
  begin
     id 20
     name lwrist
     direction 1 -4.4896e-011 -7.78665e-028   
     length 1.76356   
     axis 1.91374e-015 90 90   XYZ
    dof ry
    limits (-180.0 0.0)
 end
  begin
     id 21 
     name lhand
     direction 1 -4.48959e-011 -1.55733e-027   
     length 0.859564   
     axis 9.9371e-016 90 90   XYZ
    dof rx rz
    limits (-90.0 90.0)
           (-45.0 45.0)
  end
  begin
     id 22 
     name lfingers
     direction 1 -4.48965e-011 -3.11466e-027   
     length 0.693002   
     axis 1.98742e-015 90 90   XYZ
    dof rx
    limits (0.0 90.0)
  end
  begin
     id 23
     name lthumb
     direction 0.707107 -6.34948e-011 0.707107   
     length 0.995017   
     axis -90 45 2.85299e-015   XYZ
    dof rx rz
    limits (-45.0 45.0)
           (-45.0 45.0)
  end
  begin
     id 24 
     name rclavicle
     direction -0.899388 0.348209 -0.264294   
     length 3.68366  
     axis 0 0 0   XYZ 
    dof ry rz
    limits (-10.0 20.0)
           (-20.0 0.0)
  end
  begin
     id 25 
     name rhumerus
     direction -1 -4.48965e-011 -3.01536e-027  
     length 4.90577   
     axis 180 30 90   XYZ
    dof rx ry rz
    limits (-90.0 60.0)
           (-90.0 90.0)
           (-90.0 90.0)
  end
  begin
     id 26 
     name rradius
     direction -1 -4.48966e-011 3.93291e-027   
     length 3.42692   
     axis -180 30 90   XYZ
    dof rx
    limits (-10.0 170.0)
  end
  begin
     id 27 
     name rwrist
     direction -1 -4.48969e-011 -7.78665e-028   
     length 1.71346   
     axis 1.91374e-015 -90 -90   XYZ
    dof ry
    limits (-180.0 0.0)
  end
  begin
     id 28
     name rhand
     direction -1 -4.48967e-011 -1.55733e-027   
     length 0.740957   
     axis 9.9371e-016 -90 -90   XYZ
    dof rx rz
    limits (-90.0 90.0)
           (-45.0 45.0)
  end
  begin
     id 29
     name rfingers
     direction -1 -4.48949e-011 -3.11466e-027   
     length 0.597378   
     axis 1.98742e-015 -90 -90   XYZ
    dof rx
    limits (0.0 90.0)
  end
  begin
     id 30
     name rthumb
     direction -0.707107 -6.34931e-011 0.707107   
     length 0.857719   
     axis -90 -45 -2.85299e-015   XYZ
    dof rx rz
    limits (-45.0 45.0)
           (-45.0 45.0)
  end
:hierarchy
  begin
    root lhipjoint rhipjoint lowerback
    lhipjoint lfemur
    lfemur ltibia
    ltibia lfoot
    lfoot ltoes
    rhipjoint rfemur
    rfemur rtibia
    rtibia rfoot
    rfoot rtoes
    lowerback upperback
    upperback thorax
    thorax lowerneck lclavicle rclavicle
    lowerneck upperneck
    upperneck head
    lclavicle lhumerus
    lhumerus lradius
    lradius lwrist
    lwrist lhand lthumb
    lhand lfingers
    rclavicle rhumerus
    rhumerus rradius
    rradius rwrist
    rwrist rhand rthumb
    rhand rfingers
  end

#!OML:ASF E:\I on waltz\AllaLogoMonkeySwing\Project 1\Capture day 1\Session 1\Subject1.ASF
:FULLY-SPECIFIED
:DEGREES
33
root 1.76317 17.8032 5.10104 0.889019 -0.952168 -2.12469
lowerback 7.09234 0.521027 -1.23466
upperback 0.525852 0.652107 1.56189
thorax -3.46624 0.353519 2.2441
lowerneck -11.4462 0.474082 -0.477547
upperneck 23.2372 1.08838 -1.31025
head 9.18416 0.327317 -0.24549
rclavicle -6.64065e-015 -1.68967e-015
rhumerus -25.4157 -16.8425 -83.8462
rradius 20.3956
rwrist 11.4406
rhand -5.01615 -37.1868
rfingers 7.12502
rthumb 20.7779 -66.0944
lclavicle -6.64065e-015 -1.68967e-015
lhumerus -36.2932 23.6707 80.9585
lradius 33.1025
lwrist -7.86422
lhand -6.15043 -11.5694
lfingers 7.12502
lthumb 19.6877 17.4536
rfemur -2.82626 0.276121 18.0536
rtibia 18.6549
rfoot -13.7788 -13.4349
rtoes 13.1468
lfemur 2.96683 0.582413 -15.3938
ltibia 11.8826
lfoot -15.4034 4.18133
ltoes -30.6243
34
root 1.76319 17.8079 5.04904 0.983332 -0.972902 -2.04921
lowerback 7.50977 0.518313 -1.27138
upperback 0.70399 0.641084 1.54479
thorax -3.51507 0.347302 2.24656
lowerneck -11.3456 0.549194 -0.468588
upperneck 23.9769 1.18623 -1.24213
head 9.42393 0.375836 -0.213551
rclavicle -6.13748e-015 6.26172e-015
rhumerus -25.0201 -16.0043 -84.2542
rradius 20.8016
rwrist 10.8236
rhand -4.9457 -37.2872
rfingers 7.12502
rthumb 20.8456 -66.1873
lclavicle -6.13748e-015 6.26172e-015
lhumerus -35.8126 23.5226 81.2412
lradius 33.1555
lwrist -7.81248
lhand -6.19831 -11.7309
lfingers 7.12502
lthumb 19.6417 17.2968
rfemur -3.24101 0.249319 17.9692
rtibia 18.8438
rfoot -13.6419 -13.4132
rtoes 13.0561
lfemur 2.54571 0.639971 -15.4694
ltibia 12.106
lfoot -15.3085 4.09022
ltoes -30.5178
35
root 1.76112 17.8146 4.99191 1.10282 -1.03015 -2.06681
lowerback 7.89536 0.524073 -1.24359
upperback 0.972703 0.647357 1.55981
thorax -3.45234 0.34714 2.24445
lowerneck -11.3191 0.638384 -0.408065
upperneck 24.723 1.3152 -1.26024
head 9.68386 0.433525 -0.21594
rclavicle 5.03174e-015 7.35503e-015
rhumerus -24.4764 -15.0854 -84.7145
rradius 21.3025
rwrist 10.1754
rhand -4.8639 -37.5838
rfingers 7.12502
rthumb 20.9242 -66.4752
lclavicle 5.03174e-015 7.35503e-015
lhumerus -35.1706 23.1839 81.7028
lradius 33.3469
lwrist -7.48149
lhand -6.19175 -11.8751
lfingers 7.12502
lthumb 19.648 17.152
rfemur -3.73854 0.240678 18.0003
rtibia 19.1027
rfoot -13.508 -13.3752
rtoes 13.0634
lfemur 2.0959 0.690904 -15.43
ltibia 12.306
lfoot -15.1796 3.98722
ltoes -30.2881
36
root 1.7583 17.8214 4.92959 1.2138 -1.08572 -1.95379
lowerback 8.37235 0.562447 -1.33052
upperback 1.24331 0.684008 1.51465
thorax -3.4402 0.363619 2.24077
lowerneck -11.1647 0.678879 -0.316202
upperneck 25.3166 1.37443 -1.31283
head 9.86757 0.459793 -0.244035
rclavicle 2.77056e-015 7.35503e-015
rhumerus -24.0058 -14.054 -85.2053
rradius 21.9442
rwrist 9.29562
rhand -4.83565 -37.9256
rfingers 7.12502
rthumb 20.9513 -66.8141
lclavicle 2.77056e-015 7.35503e-015
lhumerus -34.522 22.6901 82.191
lradius 33.601
lwrist -7.12392
lhand -6.07304 -12.1202
lfingers 7.12502
lthumb 19.7621 16.8952
rfemur -4.26701 0.184312 17.8807
rtibia 19.4127
rfoot -13.4032 -13.2649
rtoes 13.0839
lfemur 1.61153 0.764341 -15.537
ltibia 12.5502
lfoot -15.0682 3.88619
ltoes -30.1263
37
root 1.75687 17.8277 4.86036 1.35601 -1.08791 -1.71467
lowerback 8.91956 0.576804 -1.53396
upperback 1.54689 0.674854 1.43622
thorax -3.43082 0.358077 2.27312
lowerneck -11.037 0.731675 -0.287533
upperneck 25.7914 1.44077 -1.2799
head 10.0142 0.493716 -0.230516
rclavicle 9.01985e-015 1.2424e-014
rhumerus -23.462 -12.7543 -85.7621
rradius 22.6729
rwrist 8.24359
rhand -4.78496 -38.1882
rfingers 7.12502
rthumb 21 -67.0713
lclavicle 9.01985e-015 1.2424e-014
lhumerus -33.8091 22.1965 82.6936
lradius 33.9336
lwrist -6.80045
lhand -5.9712 -12.1766
lfingers 7.12502
lthumb 19.86 16.8287
rfemur -4.87772 0.0965627 17.6109
rtibia 19.7746
rfoot -13.3058 -13.1558
rtoes 13.2783
lfemur 1.03697 0.87715 -15.7877
ltibia 12.8312
lfoot -14.9687 3.71882
ltoes -30.0755
